<svg xmlns="http://www.w3.org/2000/svg" width="423.201" height="248.991" viewBox="0 0 423.201 248.991">
  <g id="Group_265" data-name="Group 265" transform="translate(-2847.355 -2586.376)">
    <path id="Path_732" data-name="Path 732" d="M447.619,207.171a9.876,9.876,0,1,1,0-19.752h3.263a10.458,10.458,0,0,0,1.411-20.81H400.109a9.876,9.876,0,1,1,0-19.752h44.318a10.458,10.458,0,0,0,1.764-16.189,10.58,10.58,0,0,0-3.033-2.1H353.216a9.876,9.876,0,1,1,0-19.752H454.3A10.458,10.458,0,0,0,461.71,90.97a10.791,10.791,0,0,0-2.328-1.764h-53.93a9.876,9.876,0,1,1,0-19.734h78.69a10.476,10.476,0,0,0,7.389-17.865,10.669,10.669,0,0,0-3.809-2.434h-40.1a9.876,9.876,0,1,1,0-19.734h27.035A124.455,124.455,0,0,1,648.03,41.785h16.824a9.876,9.876,0,0,1,0,19.752h-8.2a9.876,9.876,0,0,0,0,19.734h15.22a.435.435,0,0,0,.141.388h39.31a9.876,9.876,0,0,1,0,19.752H667.341a10.143,10.143,0,1,0-.441,20.281h89.765a9.876,9.876,0,0,1,0,19.752H656.654a9.876,9.876,0,0,0-3.21,19.205h53.647a9.876,9.876,0,0,1,0,19.752H628.578a9.876,9.876,0,0,0,0,19.752h25.342l-.106.159h11.04a9.876,9.876,0,0,1,0,19.752h-29.98a124.49,124.49,0,0,1-172.829-12.821Z" transform="translate(2504.015 2586.361)" fill="#f27677" opacity="0.05"/>
    <path id="Path_733" data-name="Path 733" d="M551.6,11.6H464.055L419.56,66.5V194.075a18.535,18.535,0,0,0,18.535,18.553H551.6a18.553,18.553,0,0,0,18.535-18.553V30.153A18.553,18.553,0,0,0,551.6,11.6" transform="translate(2562.213 2595.207)" fill="#fdeeeb"/>
    <path id="Path_734" data-name="Path 734" d="M464.055,11.6V47.947A18.553,18.553,0,0,1,445.52,66.5H419.56Z" transform="translate(2562.213 2595.207)" fill="#f27677" opacity="0.1"/>
    <path id="Path_735" data-name="Path 735" d="M570.133,30.153V194.076A18.553,18.553,0,0,1,551.6,212.628H438.1a18.553,18.553,0,0,1-18.535-18.553V66.5l44.495-54.9H551.6A18.553,18.553,0,0,1,570.133,30.153Z" transform="translate(2562.213 2595.207)" fill="none" stroke="#f27677" stroke-miterlimit="10" stroke-width="2.2"/>
    <path id="Path_736" data-name="Path 736" d="M464.055,11.6V47.947A18.553,18.553,0,0,1,445.52,66.5H419.56Z" transform="translate(2562.213 2595.207)" fill="none" stroke="#f27677" stroke-linecap="round" stroke-linejoin="round" stroke-width="2.2"/>
    <path id="Path_737" data-name="Path 737" d="M449.26,70.935a35.412,35.412,0,0,1,49.538,0" transform="translate(2584.891 2632.797)" fill="none" stroke="#f27677" stroke-linecap="round" stroke-linejoin="round" stroke-width="2.2"/>
    <line id="Line_33" data-name="Line 33" x2="67.809" transform="translate(3023.023 2732.037)" fill="none" stroke="#f27677" stroke-linecap="round" stroke-linejoin="round" stroke-width="2.2"/>
    <line id="Line_34" data-name="Line 34" x2="125.424" transform="translate(2994.347 2757.521)" fill="none" stroke="#f27677" stroke-linecap="round" stroke-linejoin="round" stroke-width="2.2"/>
    <line id="Line_35" data-name="Line 35" x2="125.424" transform="translate(2994.347 2774.574)" fill="none" stroke="#f27677" stroke-linecap="round" stroke-linejoin="round" stroke-width="2.2"/>
    <path id="Path_738" data-name="Path 738" d="M449.818,52.139a3.421,3.421,0,1,1-1-2.431A3.439,3.439,0,0,1,449.818,52.139Z" transform="translate(2580.065 2623.535)" fill="#f27677"/>
    <path id="Path_739" data-name="Path 739" d="M447.137,58.019a5.15,5.15,0,1,1,5.132-5.132A5.15,5.15,0,0,1,447.137,58.019Zm0-6.86a1.764,1.764,0,1,0,1.372,1.719A1.764,1.764,0,0,0,447.137,51.159Z" transform="translate(2579.324 2622.786)" fill="#f27677"/>
    <path id="Path_740" data-name="Path 740" d="M485.308,52.139a3.421,3.421,0,1,1-1-2.431,3.439,3.439,0,0,1,1,2.431Z" transform="translate(2607.164 2623.535)" fill="#f27677"/>
    <path id="Path_741" data-name="Path 741" d="M482.627,58.019a5.15,5.15,0,1,1,5.132-5.132,5.149,5.149,0,0,1-5.132,5.132Zm0-6.86A1.764,1.764,0,1,0,484,52.878,1.764,1.764,0,0,0,482.627,51.159Z" transform="translate(2606.423 2622.786)" fill="#f27677"/>
  </g>
</svg>
