<svg xmlns="http://www.w3.org/2000/svg" width="159.853" height="97.365" viewBox="0 0 159.853 97.365">
  <g id="Group_143" data-name="Group 143" transform="translate(1055 -1671)">
    <path id="Path_290" data-name="Path 290" d="M236.835,0V97.365a48.683,48.683,0,1,0,0-97.365Z" transform="translate(-1243.153 1671)" fill="#2b479d"/>
    <path id="Path_291" data-name="Path 291" d="M48.682,0a48.683,48.683,0,0,0,0,97.365C75.57,97.365,75.57,0,48.682,0Z" transform="translate(-1055 1671)" fill="#2b479d"/>
    <g id="Group_141" data-name="Group 141" transform="translate(-1045.751 1679.443)">
      <path id="Path_292" data-name="Path 292" d="M216.986,41.075l1.187,3.654h3.843l-3.109,2.258,1.187,3.654-3.109-2.26-3.109,2.26,1.188-3.654-3.11-2.258H215.8Z" transform="translate(-177.636 -41.075)" fill="#f8d12e"/>
      <path id="Path_293" data-name="Path 293" d="M216.986,376.687l1.187,3.656h3.843l-3.109,2.258,1.187,3.654L216.986,384l-3.109,2.258,1.188-3.654-3.11-2.258H215.8Z" transform="translate(-177.636 -307.701)" fill="#f8d12e"/>
      <path id="Path_294" data-name="Path 294" d="M309.1,70.82l1.187,3.655h3.843l-3.109,2.26,1.188,3.654-3.109-2.26-3.109,2.26,1.188-3.654-3.109-2.26h3.843Z" transform="translate(-250.815 -64.706)" fill="#f8d12e"/>
      <path id="Path_295" data-name="Path 295" d="M371.939,132.822l1.187,3.654h3.843l-3.109,2.259,1.188,3.654-3.109-2.258-3.109,2.258,1.188-3.654-3.109-2.259h3.843Z" transform="translate(-300.738 -113.963)" fill="#f8d12e"/>
      <path id="Path_296" data-name="Path 296" d="M373.435,289.473l1.187,3.656h3.843l-3.109,2.258,1.188,3.654-3.109-2.258-3.109,2.258,1.188-3.654-3.109-2.258h3.843Z" transform="translate(-301.926 -238.414)" fill="#f8d12e"/>
      <path id="Path_297" data-name="Path 297" d="M64.313,132.822l1.187,3.654h3.843l-3.109,2.259,1.187,3.654-3.108-2.258L61.2,142.39l1.187-3.654-3.109-2.259h3.843Z" transform="translate(-56.346 -113.963)" fill="#f8d12e"/>
      <path id="Path_298" data-name="Path 298" d="M386.5,207.531l1.187,3.654h3.843l-3.109,2.258,1.187,3.655-3.109-2.258L383.4,217.1l1.188-3.655-3.11-2.258h3.843Z" transform="translate(-312.31 -173.316)" fill="#f8d12e"/>
      <path id="Path_299" data-name="Path 299" d="M50.026,207.531l1.187,3.654h3.843l-3.109,2.258,1.188,3.655-3.109-2.258L46.917,217.1l1.188-3.655-3.109-2.258h3.843Z" transform="translate(-44.995 -173.316)" fill="#f8d12e"/>
      <path id="Path_300" data-name="Path 300" d="M62.284,289.473l1.187,3.656h3.843L64.2,295.387l1.187,3.654-3.108-2.258-3.109,2.258,1.187-3.654-3.109-2.258H61.1Z" transform="translate(-54.733 -238.414)" fill="#f8d12e"/>
      <path id="Path_301" data-name="Path 301" d="M311.807,354.119l1.187,3.654h3.843l-3.11,2.26,1.188,3.654-3.109-2.258-3.11,2.258,1.189-3.654-3.109-2.26h3.843Z" transform="translate(-252.966 -289.772)" fill="#f8d12e"/>
      <path id="Path_302" data-name="Path 302" d="M127.864,70.82l1.187,3.655h3.843l-3.109,2.26,1.188,3.654-3.109-2.26-3.109,2.26,1.187-3.654-3.109-2.26h3.843Z" transform="translate(-106.834 -64.706)" fill="#f8d12e"/>
      <path id="Path_303" data-name="Path 303" d="M121.043,352.982l1.187,3.656h3.843l-3.109,2.258,1.187,3.654-3.109-2.257-3.109,2.257,1.187-3.654-3.109-2.258h3.843Z" transform="translate(-101.415 -288.869)" fill="#f8d12e"/>
    </g>
    <g id="Group_142" data-name="Group 142" transform="translate(-992.512 1671)">
      <g id="Group_137" data-name="Group 137" transform="translate(0.201)">
        <rect id="Rectangle_67" data-name="Rectangle 67" width="96.93" height="0.001" transform="translate(0.018 53.236)" fill="#c42126"/>
        <rect id="Rectangle_68" data-name="Rectangle 68" width="86.829" height="0.001" transform="translate(5.067 26.66)" fill="#c42126"/>
        <rect id="Rectangle_69" data-name="Rectangle 69" width="93.732" height="0.001" transform="translate(1.614 35.517)" fill="#c42126"/>
        <path id="Path_241" data-name="Path 241" d="M101.781,431.348H157.3l0,0H101.778Z" transform="translate(-81.058 -342.681)" fill="#c42126"/>
        <path id="Path_242" data-name="Path 242" d="M225.835,0c-.956,0-1.9.035-2.846.088h5.694C227.74.035,226.792,0,225.835,0Z" transform="translate(-177.354)" fill="#c42126"/>
        <rect id="Rectangle_70" data-name="Rectangle 70" width="96.961" height="0.001" transform="translate(0 44.377)" fill="#c42126"/>
      </g>
      <path id="Path_243" data-name="Path 243" d="M292.4,52.381h23.246a48.929,48.929,0,0,0-9.526-8.856H288.667A46.282,46.282,0,0,1,292.4,52.381Z" transform="translate(-229.331 -34.578)" fill="#f3f4f5"/>
      <path id="Path_244" data-name="Path 244" d="M252.7,9.288h17.456A48.414,48.414,0,0,0,244.895.43h-1.5C247.812.986,249.84,4.254,252.7,9.288Z" transform="translate(-193.366 -0.342)" fill="#e73625"/>
      <path id="Path_245" data-name="Path 245" d="M348.137,138.566a48.364,48.364,0,0,0-3.453-8.856H317.94c.542,2.843.969,5.813,1.286,8.856Z" transform="translate(-252.587 -103.048)" fill="#f3f4f5"/>
      <path id="Path_246" data-name="Path 246" d="M302.093,95.469H330.34a48.712,48.712,0,0,0-5.779-8.857H299.886A78.148,78.148,0,0,1,302.093,95.469Z" transform="translate(-238.244 -68.809)" fill="#e73625"/>
      <path id="Path_247" data-name="Path 247" d="M329.178,224.75h29.483c.14-1.5.219-3.016.219-4.551,0-1.452-.076-2.886-.2-4.306H329.185C329.281,218.839,329.279,221.806,329.178,224.75Z" transform="translate(-261.515 -171.516)" fill="#f3f4f5"/>
      <path id="Path_248" data-name="Path 248" d="M349.922,181.658a48.484,48.484,0,0,0-1.615-8.856H318.154c.3,2.9.5,5.867.6,8.856Z" transform="translate(-252.757 -137.282)" fill="#e73625"/>
      <path id="Path_249" data-name="Path 249" d="M315.465,310.932H342.59a48.3,48.3,0,0,0,3.51-8.857H316.776C316.453,305.122,316.015,308.091,315.465,310.932Z" transform="translate(-250.621 -239.983)" fill="#f3f4f5"/>
      <path id="Path_250" data-name="Path 250" d="M351.053,267.844a48.38,48.38,0,0,0,1.666-8.856h-30.4c-.1,2.991-.31,5.957-.619,8.856Z" transform="translate(-255.573 -205.752)" fill="#e73625"/>
      <path id="Path_251" data-name="Path 251" d="M306.272,397.117a48.967,48.967,0,0,0,9.666-8.856H293.1a45.243,45.243,0,0,1-3.806,8.856Z" transform="translate(-229.827 -308.453)" fill="#f3f4f5"/>
      <g id="Group_138" data-name="Group 138" transform="translate(46.623 70.95)">
        <path id="Path_252" data-name="Path 252" d="M303.625,354.024h23.7a48.756,48.756,0,0,0,5.858-8.857H305.86A77.072,77.072,0,0,1,303.625,354.024Z" transform="translate(-287.837 -345.167)" fill="#e73625"/>
        <path id="Path_253" data-name="Path 253" d="M227.113,473.468l-.3-.011Z" transform="translate(-226.818 -447.087)" fill="#e73625"/>
        <path id="Path_254" data-name="Path 254" d="M236.837,440.058a48.455,48.455,0,0,0,27.76-8.7H246.978C243.851,436.747,241.788,440.058,236.837,440.058Z" transform="translate(-234.778 -413.643)" fill="#e73625"/>
      </g>
      <path id="Path_255" data-name="Path 255" d="M230.019,473.544c-.591,0-1.178-.014-1.764-.035C228.847,473.529,229.435,473.544,230.019,473.544Z" transform="translate(-181.337 -376.178)" fill="#c42126"/>
      <path id="Path_256" data-name="Path 256" d="M103.647,43.525H63.273a48.933,48.933,0,0,0-9.526,8.856h53.635A46.277,46.277,0,0,0,103.647,43.525Z" transform="translate(-42.7 -34.578)" fill="#f3f4f5"/>
      <path id="Path_257" data-name="Path 257" d="M100.092,9.288h40.374c-2.862-5.034-6.5-8.3-10.918-8.858h-4.195A48.409,48.409,0,0,0,100.092,9.288Z" transform="translate(-79.518 -0.342)" fill="#e73625"/>
      <path id="Path_258" data-name="Path 258" d="M8.835,138.566H75.193c-.317-3.043-.744-6.013-1.286-8.856H12.288A48.351,48.351,0,0,0,8.835,138.566Z" transform="translate(-7.019 -103.048)" fill="#f3f4f5"/>
      <path id="Path_259" data-name="Path 259" d="M31.415,86.609a48.744,48.744,0,0,0-5.778,8.857H87.256a78.058,78.058,0,0,0-2.206-8.857Z" transform="translate(-20.368 -68.806)" fill="#e73625"/>
      <path id="Path_260" data-name="Path 260" d="M0,220.2c0,1.534.08,3.052.219,4.551h68.55c.1-2.944.1-5.91.007-8.856H.2C.078,217.316,0,218.749,0,220.2Z" transform="translate(-0.002 -171.518)" fill="#f3f4f5"/>
      <path id="Path_261" data-name="Path 261" d="M.978,181.658H69.553c-.1-2.989-.3-5.956-.6-8.856H2.592A48.426,48.426,0,0,0,.978,181.658Z" transform="translate(-0.777 -137.282)" fill="#e73625"/>
      <path id="Path_262" data-name="Path 262" d="M75.44,302.072H9.175a48.329,48.329,0,0,0,3.51,8.857H74.128C74.679,308.089,75.116,305.12,75.44,302.072Z" transform="translate(-7.289 -239.98)" fill="#f3f4f5"/>
      <path id="Path_263" data-name="Path 263" d="M2.734,267.844H69c.308-2.9.515-5.866.619-8.856H1.068A48.44,48.44,0,0,0,2.734,267.844Z" transform="translate(-0.849 -205.752)" fill="#e73625"/>
      <path id="Path_264" data-name="Path 264" d="M64.419,397.117H104.3a45.224,45.224,0,0,0,3.806-8.856H54.753A48.944,48.944,0,0,0,64.419,397.117Z" transform="translate(-43.499 -308.453)" fill="#f3f4f5"/>
      <g id="Group_139" data-name="Group 139" transform="translate(5.396 70.95)">
        <path id="Path_265" data-name="Path 265" d="M26.254,345.166a48.767,48.767,0,0,0,5.858,8.857H85.463a77.222,77.222,0,0,0,2.234-8.857Z" transform="translate(-26.254 -345.166)" fill="#e73625"/>
        <path id="Path_266" data-name="Path 266" d="M127.492,440.012l.3.011c.586.021,1.173.035,1.764.035,4.951,0,8.988-3.311,12.116-8.7H101.793A48.427,48.427,0,0,0,127.492,440.012Z" transform="translate(-86.266 -413.642)" fill="#e73625"/>
      </g>
      <path id="Path_267" data-name="Path 267" d="M48.477.123A48.668,48.668,0,0,0,1.008,44.394h47.47V.123Z" transform="translate(-0.801 -0.098)" fill="#283991"/>
      <g id="Group_140" data-name="Group 140" transform="translate(1.638 3.374)">
        <path id="Path_268" data-name="Path 268" d="M35.236,134.187l.742,2.284h2.4l-1.944,1.412.742,2.285-1.943-1.413-1.942,1.413.741-2.285-1.943-1.412h2.4Z" transform="translate(-27.133 -109.978)" fill="#efefef"/>
        <path id="Path_269" data-name="Path 269" d="M35.236,173.438l.742,2.285h2.4l-1.944,1.412.742,2.285-1.943-1.413-1.942,1.413.741-2.285-1.943-1.412h2.4Z" transform="translate(-27.133 -141.161)" fill="#efefef"/>
        <path id="Path_270" data-name="Path 270" d="M74.491,75.3l.742,2.285h2.4l-1.943,1.413.742,2.284-1.942-1.411-1.943,1.411.742-2.284-1.944-1.413h2.4Z" transform="translate(-58.318 -63.192)" fill="#efefef"/>
        <path id="Path_271" data-name="Path 271" d="M74.491,114.554l.742,2.285h2.4l-1.943,1.411.742,2.285-1.942-1.411-1.943,1.411.742-2.285-1.944-1.411h2.4Z" transform="translate(-58.318 -94.381)" fill="#efefef"/>
        <path id="Path_272" data-name="Path 272" d="M74.491,153.812l.742,2.285h2.4l-1.943,1.411.742,2.285-1.942-1.413-1.943,1.413.742-2.285L71.345,156.1h2.4Z" transform="translate(-58.318 -125.569)" fill="#efefef"/>
        <path id="Path_273" data-name="Path 273" d="M9.947,167.978,9.2,165.693l1.943-1.411h-2.4l-.054-.167c-.264.816-.5,1.641-.722,2.476L8,166.566Z" transform="translate(-7.971 -133.755)" fill="#efefef"/>
        <path id="Path_274" data-name="Path 274" d="M37.287,100.908,39.229,99.5l1.943,1.413-.742-2.285,1.943-1.413h-2.4l-.742-2.284-.742,2.284H37.6c-.164.249-.324.5-.483.753l.91.66Z" transform="translate(-31.127 -78.787)" fill="#efefef"/>
        <path id="Path_275" data-name="Path 275" d="M79.131,49.438l1.942,1.411-.742-2.284,1.942-1.413H80.887q-1.768,1.321-3.408,2.8l-.293.9Z" transform="translate(-62.959 -40.834)" fill="#efefef"/>
        <path id="Path_276" data-name="Path 276" d="M116.452,30.035l1.943-1.413,1.942,1.413L119.6,27.75l1.942-1.411h-2.4l-.1-.308c-.814.416-1.62.849-2.407,1.309l.564.41Z" transform="translate(-94.153 -24.054)" fill="#efefef"/>
        <path id="Path_277" data-name="Path 277" d="M113.749,55.671l.742,2.283h2.4l-1.943,1.413.742,2.285-1.942-1.413-1.943,1.413.742-2.285L110.6,57.954h2.4Z" transform="translate(-89.508 -47.601)" fill="#efefef"/>
        <path id="Path_278" data-name="Path 278" d="M113.749,94.929l.742,2.283h2.4l-1.943,1.413.742,2.285L113.749,99.5l-1.943,1.413.742-2.285L110.6,97.212h2.4Z" transform="translate(-89.508 -78.79)" fill="#efefef"/>
        <path id="Path_279" data-name="Path 279" d="M113.749,134.187l.742,2.284h2.4l-1.943,1.412.742,2.285-1.942-1.413-1.943,1.413.742-2.285-1.944-1.412h2.4Z" transform="translate(-89.508 -109.978)" fill="#efefef"/>
        <path id="Path_280" data-name="Path 280" d="M113.749,173.438l.742,2.285h2.4l-1.943,1.412.742,2.285-1.942-1.413-1.943,1.413.742-2.285-1.944-1.412h2.4Z" transform="translate(-89.508 -141.161)" fill="#efefef"/>
        <path id="Path_281" data-name="Path 281" d="M153.007,36.038l.742,2.285h2.4l-1.942,1.413.741,2.284-1.942-1.411-1.944,1.411.742-2.284-1.944-1.413h2.4Z" transform="translate(-120.696 -32.004)" fill="#efefef"/>
        <path id="Path_282" data-name="Path 282" d="M153.007,75.3l.742,2.285h2.4l-1.942,1.413.741,2.284-1.942-1.411-1.944,1.411.742-2.284-1.944-1.413h2.4Z" transform="translate(-120.696 -63.192)" fill="#efefef"/>
        <path id="Path_283" data-name="Path 283" d="M153.007,114.554l.742,2.285h2.4l-1.942,1.411.741,2.285-1.942-1.411-1.944,1.411.742-2.285-1.944-1.411h2.4Z" transform="translate(-120.696 -94.381)" fill="#efefef"/>
        <path id="Path_284" data-name="Path 284" d="M153.007,153.812l.742,2.285h2.4l-1.942,1.411.741,2.285-1.942-1.413-1.944,1.413.742-2.285-1.944-1.411h2.4Z" transform="translate(-120.696 -125.569)" fill="#efefef"/>
        <path id="Path_285" data-name="Path 285" d="M192.265,16.413l.742,2.285h2.4l-1.943,1.411.742,2.285-1.942-1.413-1.944,1.413.742-2.285L189.12,18.7h2.4Z" transform="translate(-151.884 -16.413)" fill="#efefef"/>
        <path id="Path_286" data-name="Path 286" d="M192.265,55.671l.742,2.283h2.4l-1.943,1.413.742,2.285-1.942-1.413-1.944,1.413.742-2.285-1.944-1.413h2.4Z" transform="translate(-151.884 -47.601)" fill="#efefef"/>
        <path id="Path_287" data-name="Path 287" d="M192.265,94.929l.742,2.283h2.4l-1.943,1.413.742,2.285L192.265,99.5l-1.944,1.413.742-2.285-1.944-1.413h2.4Z" transform="translate(-151.884 -78.79)" fill="#efefef"/>
        <path id="Path_288" data-name="Path 288" d="M192.265,134.187l.742,2.284h2.4l-1.943,1.412.742,2.285-1.942-1.413-1.944,1.413.742-2.285-1.944-1.412h2.4Z" transform="translate(-151.884 -109.978)" fill="#efefef"/>
        <path id="Path_289" data-name="Path 289" d="M192.265,173.438l.742,2.285h2.4l-1.943,1.412.742,2.285-1.942-1.413-1.944,1.413.742-2.285-1.944-1.412h2.4Z" transform="translate(-151.884 -141.161)" fill="#efefef"/>
      </g>
    </g>
  </g>
</svg>
