<svg xmlns="http://www.w3.org/2000/svg" width="454.965" height="242.355" viewBox="0 0 454.965 242.355">
  <g id="Group_136" data-name="Group 136" transform="translate(1057.549 -1244)">
    <path id="Path_148" data-name="Path 148" d="M427.76,221.36c-2.7-5.15-13.67-9.29-18.59-10.23-26.21-5-53.67-4.3-80.23-4.22-28.92.09-56.52,4.72-85.2,6.86-14.92,1.12-30.68-.89-45.64-1.4q-36.93-1.29-73.84-3c-21.22-1-43.24,1.23-62,12.93-2.12,1.33-4.27,2.94-5.24,5.32-6.08,15,69.69,13.11,79.57,13.37,49.79,1.29,99.62,2,149.43.61,37-1,75.62-.94,112.34-6.16,8.12-1.16,19.18-1.57,26.19-6.35C428.47,226.43,429,223.79,427.76,221.36Z" transform="translate(-1057.5 1243.996)" fill="#32a576"/>
    <path id="Path_149" data-name="Path 149" d="M395.53,16.8h2" transform="translate(-1057.5 1243.996)" fill="none" stroke="#32a576" stroke-miterlimit="10" stroke-width="1"/>
    <path id="Path_150" data-name="Path 150" d="M401.53,17.12c12.92,1.31,28.68,6.76,26.84,17.93-2.94,17.81-82.08,11.24-101,11.42-38,.38-76.42.52-113.69,8.83-9.07,2-22,6.48-21.06,18,.34,4,2.73,7.69,5.75,10.42,10.89,9.83,26.05,10.77,40.13,12.5,21.29,2.61,122.58-.87,155.69,10,6.52,2.14,14.67,4.89,14.94,14.21.69,23.68-58.13,22.51-75.77,23-47.09,1.2-94.23.73-141.32-.2-38.06-.75-76.23-1.42-114.23-3.87-14.16-.92-37.32-1.19-48.13-11.82-6-6-6.83-16.76,2.72-22.28,6.73-3.89,26.48-2.19,34.08-2.84,23-2,16-15.92-2.6-17.7" transform="translate(-1057.5 1243.996)" fill="none" stroke="#32a576" stroke-miterlimit="10" stroke-width="1" stroke-dasharray="4.01 4.01"/>
    <path id="Path_151" data-name="Path 151" d="M61.9,84.57h-2" transform="translate(-1057.5 1243.996)" fill="none" stroke="#32a576" stroke-miterlimit="10" stroke-width="1"/>
    <path id="Path_152" data-name="Path 152" d="M396.88,34.12,390.81,2.06A2.53,2.53,0,0,0,386.67.62L362,21.89a2.53,2.53,0,0,0,.81,4.31L393.55,37a2.54,2.54,0,0,0,3.33-2.88Z" transform="translate(-1057.5 1243.996)" fill="#32a576"/>
    <path id="Path_153" data-name="Path 153" d="M392.2,33.63a1.52,1.52,0,0,1-.51-.09l-25.33-8.86a1.58,1.58,0,0,1-.5-2.68L386.19,4.5a1.56,1.56,0,0,1,1.55-.29,1.58,1.58,0,0,1,1,1.19l5,26.36a1.57,1.57,0,0,1-1.55,1.87ZM367.72,23l23.93,8.38L386.94,6.5Z" transform="translate(-1057.5 1243.996)" fill="#008f55"/>
    <path id="Path_154" data-name="Path 154" d="M381.21,22.87h0a1,1,0,0,1-.6-1.17l2.51-8.81a1.49,1.49,0,0,1,1.92-1h0a1.48,1.48,0,0,1,.89,2l-3.53,8.45A1,1,0,0,1,381.21,22.87Z" transform="translate(-1057.5 1243.996)" fill="#008f55"/>
    <path id="Path_155" data-name="Path 155" d="M381.39,25.27A1,1,0,1,1,380.8,24,1,1,0,0,1,381.39,25.27Z" transform="translate(-1057.5 1243.996)" fill="#008f55"/>
    <path id="Path_156" data-name="Path 156" d="M58,73.75,38,63.82a1.74,1.74,0,0,0-2.5,1.66L36.92,87.7A1.73,1.73,0,0,0,39.6,89L58.16,76.7A1.73,1.73,0,0,0,58,73.75Z" transform="translate(-1057.5 1243.996)" fill="#32a576"/>
    <path id="Path_157" data-name="Path 157" d="M55.78,76.09a1.2,1.2,0,0,1-.26.24L40.26,86.45a1.1,1.1,0,0,1-1.08.07,1.08,1.08,0,0,1-.59-.9L37.46,67.34a1.08,1.08,0,0,1,1.55-1l16.4,8.17a1.06,1.06,0,0,1,.59.89A1,1,0,0,1,55.78,76.09ZM39.92,85l14.43-9.56-15.5-7.71Z" transform="translate(-1057.5 1243.996)" fill="#008f55"/>
    <path id="Path_158" data-name="Path 158" d="M45.39,77.63h0a.65.65,0,0,1-.88-.16l-3.75-5A1,1,0,0,1,41,71h0a1,1,0,0,1,1.43.33l3.14,5.4A.65.65,0,0,1,45.39,77.63Z" transform="translate(-1057.5 1243.996)" fill="#008f55"/>
    <path id="Path_159" data-name="Path 159" d="M46.78,78.52a.66.66,0,1,1-.42-.287.66.66,0,0,1,.42.287Z" transform="translate(-1057.5 1243.996)" fill="#008f55"/>
    <circle id="Ellipse_23" data-name="Ellipse 23" cx="1.66" cy="1.66" r="1.66" transform="translate(-987.38 1359.246)" fill="none" stroke="#32a576" stroke-miterlimit="10" stroke-width="1"/>
    <circle id="Ellipse_24" data-name="Ellipse 24" cx="1.66" cy="1.66" r="1.66" transform="translate(-740.95 1328.526)" fill="none" stroke="#32a576" stroke-miterlimit="10" stroke-width="1"/>
    <circle id="Ellipse_25" data-name="Ellipse 25" cx="1.66" cy="1.66" r="1.66" transform="translate(-871.7 1282.006)" fill="none" stroke="#32a576" stroke-miterlimit="10" stroke-width="1"/>
    <circle id="Ellipse_26" data-name="Ellipse 26" cx="1.66" cy="1.66" r="1.66" transform="translate(-873.69 1408.256)" fill="none" stroke="#32a576" stroke-miterlimit="10" stroke-width="1"/>
    <line id="Line_14" data-name="Line 14" y2="3.75" transform="translate(-833.34 1312.166)" fill="none" stroke="#32a576" stroke-linecap="round" stroke-linejoin="round" stroke-width="1"/>
    <line id="Line_15" data-name="Line 15" x1="3.76" transform="translate(-835.22 1314.036)" fill="none" stroke="#32a576" stroke-linecap="round" stroke-linejoin="round" stroke-width="1"/>
    <line id="Line_16" data-name="Line 16" y2="3.76" transform="translate(-765.93 1264.176)" fill="none" stroke="#32a576" stroke-linecap="round" stroke-linejoin="round" stroke-width="1"/>
    <line id="Line_17" data-name="Line 17" x1="3.76" transform="translate(-767.81 1266.056)" fill="none" stroke="#32a576" stroke-linecap="round" stroke-linejoin="round" stroke-width="1"/>
    <line id="Line_18" data-name="Line 18" y2="3.76" transform="translate(-661.64 1365.486)" fill="none" stroke="#32a576" stroke-linecap="round" stroke-linejoin="round" stroke-width="1"/>
    <line id="Line_19" data-name="Line 19" x1="3.76" transform="translate(-663.52 1367.366)" fill="none" stroke="#32a576" stroke-linecap="round" stroke-linejoin="round" stroke-width="1"/>
    <path id="Path_160" data-name="Path 160" d="M257.88,228.86s-7,3-7,4.47c0,.86,9.61-.36,10.19-.94.93-.93-.37-3.4-.37-3.4Z" transform="translate(-1057.5 1243.996)" fill="#26387a"/>
    <path id="Path_161" data-name="Path 161" d="M257.43,224.69l.45,4.3a1.31,1.31,0,0,0,1.21.77,2,2,0,0,0,1.62-.77l-.35-5.38" transform="translate(-1057.5 1243.996)" fill="#ffb288"/>
    <path id="Path_162" data-name="Path 162" d="M269.64,126.12c2.54,10.24,1.6,15.45-2.13,23.17-2.26,26-3.83,51.88-6.87,77.21l-3.21.19c-7.3-24.67-14-61.55-13.15-95.26" transform="translate(-1057.5 1243.996)" fill="#26387a"/>
    <path id="Path_163" data-name="Path 163" d="M268.05,129.64a19.36,19.36,0,0,1,1.09,7.59c-.13,3.88-1.71,7.4-2.73,11.09-1.37,4.92-1.47,9.81-1.85,14.85q-.87,11.84-1.78,23.66-1.47,19.29-3,38.58l-.09,1.15" transform="translate(-1057.5 1243.996)" fill="#008f55" stroke="#0061a6" stroke-miterlimit="10" stroke-width="0.5"/>
    <path id="Path_164" data-name="Path 164" d="M285.75,229.86s-7,3-7,4.47c0,.86,9.61-.36,10.19-.94.93-.93-.38-3.4-.38-3.4Z" transform="translate(-1057.5 1243.996)" fill="#26387a"/>
    <path id="Path_165" data-name="Path 165" d="M285.3,225.69l.45,4.3a1.31,1.31,0,0,0,1.21.77,2,2,0,0,0,1.62-.77l-.34-5.38" transform="translate(-1057.5 1243.996)" fill="#ffb288"/>
    <path id="Path_166" data-name="Path 166" d="M292.88,125.25c3.22,10.05,2.62,15.31-.58,23.27-.53,26.08-2.33,53.31-3.68,78.79h-3.3c-8.92-24.13-18.46-61.39-19.84-95.08" transform="translate(-1057.5 1243.996)" fill="#26387a"/>
    <path id="Path_167" data-name="Path 167" d="M291.29,129.41s3.73,8.73-2.57,21c-.73,11.56-1.1,76.92-1.1,76.92" transform="translate(-1057.5 1243.996)" fill="none" stroke="#008f55" stroke-miterlimit="10" stroke-width="0.5"/>
    <path id="Path_168" data-name="Path 168" d="M282.07,132.18a5.7,5.7,0,0,0,2.74,2.12,13.21,13.21,0,0,0,3.4.77,24.129,24.129,0,0,0,4.16.22" transform="translate(-1057.5 1243.996)" fill="none" stroke="#008f55" stroke-miterlimit="10" stroke-width="0.5"/>
    <path id="Path_169" data-name="Path 169" d="M282.53,133.81a9.48,9.48,0,0,0,4.27,2.1,22.429,22.429,0,0,0,4.77.46" transform="translate(-1057.5 1243.996)" fill="none" stroke="#008f55" stroke-miterlimit="10" stroke-width="0.5"/>
    <path id="Path_170" data-name="Path 170" d="M254.73,76.65c-11.12,19.35-23.09,36.87-30.18,58l-2.12-1.13c.54-19.64,6.91-48.2,15.27-66" transform="translate(-1057.5 1243.996)" fill="#ffb288"/>
    <path id="Path_171" data-name="Path 171" d="M249.3,56.45a29.179,29.179,0,0,0-7.49,3.65,25.45,25.45,0,0,0-8.64,10.43,47.23,47.23,0,0,0-3.73,13.15,35,35,0,0,0,10,3,53.279,53.279,0,0,0,11,0" transform="translate(-1057.5 1243.996)" fill="#32a576"/>
    <path id="Path_172" data-name="Path 172" d="M241,67.88c-1.18,20.93-.28,42.45.26,62.81,0,0,7.29,1.94,25,1.94s29.22-5.39,29.22-5.39c-3.42-20.91-6.14-46.58-14.52-63.8,0,0-9.46-10.2-18.78-10.62a12.13,12.13,0,0,0-5.54,1.44c-1.32.61-7.36,2.09-7.36,2.09Z" transform="translate(-1057.5 1243.996)" fill="#32a576"/>
    <path id="Path_173" data-name="Path 173" d="M240.91,69.75c-.47,4-.47,16.44-.47,16.44" transform="translate(-1057.5 1243.996)" fill="none" stroke="#008f55" stroke-miterlimit="10" stroke-width="0.5"/>
    <path id="Path_174" data-name="Path 174" d="M258.54,137.27c29.61-3.28,42,34.25,48.78,48.81,15.94,34.42,76.08,30.59,103.49,30.59,35.89,0,51.65,12.09,34.89,18.44" transform="translate(-1057.5 1243.996)" fill="none" stroke="#32a576" stroke-linecap="round" stroke-linejoin="round" stroke-width="5"/>
    <path id="Path_175" data-name="Path 175" d="M268.74,139c0,15.23-11.53,24.42-21.38,24.42H231.19V114.54h16.17C257.21,114.54,268.74,123.73,268.74,139Z" transform="translate(-1057.5 1243.996)" fill="#fdae2b"/>
    <path id="Path_176" data-name="Path 176" d="M260.41,139c0,14.88-8.81,26.95-19.69,26.95H222.89V112h17.83C251.6,112,260.41,124.08,260.41,139Z" transform="translate(-1057.5 1243.996)" fill="#ef8417"/>
    <path id="Path_177" data-name="Path 177" d="M264.36,124.24c-3.85,5.25-7.62,10.58-11.26,16a2.75,2.75,0,0,0,1.38-.72c0,.41-.65,1.11-.08,1.37s1.18-.41,1.77-.23c.56-.13,1.08-.83,1.49-1.23a3.128,3.128,0,0,0-.25.94c3.94-1.53,7.46-5.2,10.52-8.15a24.809,24.809,0,0,0-3.57-7.98Z" transform="translate(-1057.5 1243.996)" fill="#fdae2b" opacity="0.5"/>
    <ellipse id="Ellipse_27" data-name="Ellipse 27" cx="19.69" cy="26.95" rx="19.69" ry="26.95" transform="translate(-853.03 1356.016)" fill="#ffc840"/>
    <path id="Path_178" data-name="Path 178" d="M225.81,148.52c0,2.21-1.51,4-3.38,4s-3.37-1.79-3.37-4,1.51-4,3.37-4S225.81,146.3,225.81,148.52Z" transform="translate(-1057.5 1243.996)" fill="#ef8417"/>
    <path id="Path_179" data-name="Path 179" d="M225.81,129.41c0,2.22-1.51,4-3.38,4s-3.37-1.79-3.37-4,1.51-4,3.37-4S225.81,127.2,225.81,129.41Z" transform="translate(-1057.5 1243.996)" fill="#ef8417"/>
    <path id="Path_180" data-name="Path 180" d="M286.37,83.33s1.25,12.73-4.45,23.32a107.022,107.022,0,0,1-22.35,27.23l-1.88-.46c2.72-10.44,11.31-29,11.84-35.91s.41-15,.54-18.87" transform="translate(-1057.5 1243.996)" fill="#ffb288"/>
    <path id="Path_181" data-name="Path 181" d="M262.2,52.82s10.47.72,16.55,5.86c8.68,7.33,10,21.68,10,25-2.62,2.83-8.36,3-12.54,3a14.39,14.39,0,0,1-7.23-2l-.85-15.84" transform="translate(-1057.5 1243.996)" fill="#32a576"/>
    <path id="Path_182" data-name="Path 182" d="M258.46,131.87a6.73,6.73,0,0,0-3.36,1.48c-.91.72-2,1.92-1.92,2.47s1.62-.54,1.81-.31-2.58,4.39-2.06,4.7,2.87-3.46,2.87-3.46-2.28,4-1.4,4.12,2.76-3.74,2.76-3.74-1.71,3.41-1.12,3.54,2.17-3.27,2.17-3.27-1.29,2.9-.8,2.95a6,6,0,0,0,2.06-3.17c.52-1.72,1.13-3.21.66-4.56" transform="translate(-1057.5 1243.996)" fill="#ffb288"/>
    <line id="Line_20" data-name="Line 20" y2="14.42" transform="translate(-788.11 1314.506)" fill="none" stroke="#008f55" stroke-miterlimit="10" stroke-width="0.5"/>
    <path id="Path_183" data-name="Path 183" d="M240.48,39.52c-.06.62-.08,1.25-.08,1.88a6.78,6.78,0,0,0,1,3.89,4.1,4.1,0,0,0,2.25,1.58c.64.17,1.47.1,1.75-.5a1.611,1.611,0,0,0,.1-.69,18.471,18.471,0,0,0-1.33-6.81" transform="translate(-1057.5 1243.996)" fill="#26387a"/>
    <path id="Path_184" data-name="Path 184" d="M256.29,40.83c-.9-3.51-3.72-8.42-8.33-7.43a8.42,8.42,0,0,0-6.4,5.34c-1,3.29.63,7.12,2.61,9.81a8.05,8.05,0,0,0,2.71,2.51c2.66,1.38,6.26.25,8.07-2A9.44,9.44,0,0,0,256.29,40.83Z" transform="translate(-1057.5 1243.996)" fill="#ffb288"/>
    <path id="Path_185" data-name="Path 185" d="M249.84,50l1.5,5.49-2,1a5,5,0,0,0,4.64,1.63c6.28-.91,8.26-5.26,8.26-5.26l-3.55-.37-3.92-6.69" transform="translate(-1057.5 1243.996)" fill="#ffb288"/>
    <path id="Path_186" data-name="Path 186" d="M259.35,37a8.81,8.81,0,0,0-4.24-5.72c-3.72-2.26-9-2.44-12.32.67-1.88,1.77-5.27,8.05-1.22,9.29,1.27.39,2.57-.38,3.67-1.11l3.36-2.25a2.65,2.65,0,0,1,1.31-.57,2,2,0,0,1,1.73,1.4,16.486,16.486,0,0,1,.49,2.32,2.24,2.24,0,0,0,.84,1.41,1,1,0,0,0,1.46-.3,2.61,2.61,0,0,0,0-1.15c0-.39.21-.86.6-.85a.63.63,0,0,1,.37.17c1,.76.66,2.28,1,3.48a25.145,25.145,0,0,0-.18,2.7C259.38,45.76,259.67,38.73,259.35,37Z" transform="translate(-1057.5 1243.996)" fill="#26387a"/>
    <path id="Path_187" data-name="Path 187" d="M254.74,40.45a.87.87,0,0,1,.79-.9,1.7,1.7,0,0,1,1.23.47,2.69,2.69,0,0,1,1,2,3.07,3.07,0,0,1-.56,1.68,1.82,1.82,0,0,1-.9.79,1.44,1.44,0,0,1-1.41-.45" transform="translate(-1057.5 1243.996)" fill="#ffb288"/>
    <path id="Path_188" data-name="Path 188" d="M143.38,228.71s6.74,1.12,6.93,2.6c.11.85-9.45,1.86-10.1,1.36-1-.8.23-3.79.23-3.79Z" transform="translate(-1057.5 1243.996)" fill="#26387a"/>
    <path id="Path_189" data-name="Path 189" d="M142.84,224.57l.56,4.27a1.32,1.32,0,0,1-1.1.92,2,2,0,0,1-1.71-.56l-.79-5.32" transform="translate(-1057.5 1243.996)" fill="#ffb288"/>
    <path id="Path_190" data-name="Path 190" d="M117.64,127.43c-1.21,10.49-1.28,15.53,3.41,22.72,2.22,10.14,5.63,20.53,8.21,30.92-1.11,12.41,6.67,32.17,10.85,46.28l3-.52c4.06-25.4,5.56-64.35,1.92-98.46" transform="translate(-1057.5 1243.996)" fill="#26387a"/>
    <path id="Path_191" data-name="Path 191" d="M119.6,141.64s11.6,36.84,11.6,38.84.32,8.87.84,13.33c.94,8.17,8.34,32.24,8.34,32.24" transform="translate(-1057.5 1243.996)" fill="none" stroke="#008f55" stroke-miterlimit="10" stroke-width="0.5"/>
    <path id="Path_192" data-name="Path 192" d="M140.02,227.92l-.47-1.84,3.9-.15.05,1.7Z" transform="translate(-1057.5 1243.996)" fill="#008f55"/>
    <path id="Path_193" data-name="Path 193" d="M90.94,228.92s5.27,3.81,4.81,5.15c-.27.77-8.85-2.41-9.2-3.11-.54-1.12,1.81-3.14,1.81-3.14Z" transform="translate(-1057.5 1243.996)" fill="#26387a"/>
    <path id="Path_194" data-name="Path 194" d="M92.23,225.16,90.9,229a1.24,1.24,0,0,1-1.33.32,1.91,1.91,0,0,1-1.22-1.19l1.57-4.88" transform="translate(-1057.5 1243.996)" fill="#ffb288"/>
    <path id="Path_195" data-name="Path 195" d="M95,125.25c-3.21,10.05-2.62,15.31.59,23.27.19,9.52.29,19.16.4,28.8-6.79,17-7.86,32.23-7,48.41l3.27,1.21s19.49-34,23.07-47.39a221.878,221.878,0,0,0,7.08-47.32" transform="translate(-1057.5 1243.996)" fill="#26387a"/>
    <path id="Path_196" data-name="Path 196" d="M95.78,127.43s-3.55,10.38,1.1,20.38c0,2.79,1.6,26,1,29.58-.31,1.72-3.49,9.92-5.62,17.91-2.38,8.83-2.88,29.7-2.88,29.7" transform="translate(-1057.5 1243.996)" fill="none" stroke="#008f55" stroke-miterlimit="10" stroke-width="0.5"/>
    <path id="Path_197" data-name="Path 197" d="M88.35,225.72l.52-2.18,4.19,1.95-.83,1.87Z" transform="translate(-1057.5 1243.996)" fill="#008f55"/>
    <path id="Path_198" data-name="Path 198" d="M149.48,47.59l-2.63-2.24V40.71c0-.72-1-5-1.86-5s-1.08-1.08-1.52-.64.36,5.32,0,5.68-.82-2.32-1.16-2S142,41,142,42a6.73,6.73,0,0,0,1.6,3.65c.8.8,4.33,4.61,4.33,4.61Z" transform="translate(-1057.5 1243.996)" fill="#ef9467"/>
    <path id="Path_199" data-name="Path 199" d="M148.16,46.11,146,48.6s8.67,11.48,11.41,15.32a45.87,45.87,0,0,1-8.18-4.44c-4.07-2.67-8.16-4.09-11-4.09-6,0-2.86,19.79,4.1,22.69,13.22,2,28,.73,30.3-3.91C176,67.28,156.6,51.07,148.16,46.11Z" transform="translate(-1057.5 1243.996)" fill="#32a576"/>
    <path id="Path_200" data-name="Path 200" d="M157.38,63.92S159,68.54,162,70" transform="translate(-1057.5 1243.996)" fill="none" stroke="#008f55" stroke-miterlimit="10" stroke-width="0.5"/>
    <path id="Path_201" data-name="Path 201" d="M107.87,60.63c-15.75,17.69-15.52,48.11-15.52,68.79,0,0,11.57,7.89,29.23,7.89s25-4.35,25-4.35c.53-21-3.2-30,.25-64.64,0,0-5.63-12.93-8.64-12.93s-14.76-1.16-14.76-1.16Z" transform="translate(-1057.5 1243.996)" fill="#32a576"/>
    <path id="Path_202" data-name="Path 202" d="M146,78.55s.36-6.06,1.83-7.53" transform="translate(-1057.5 1243.996)" fill="none" stroke="#008f55" stroke-miterlimit="10" stroke-width="0.5"/>
    <path id="Path_203" data-name="Path 203" d="M128.66,41c.58-3.57,3.13-8.67,7.8-8.1,2.93.37,5.2,2.39,6.84,4.76,1.41,2,.88,4-1.13,9.13a13,13,0,0,1-3.08,3.61c-2.53,1.61-6.21.8-8.21-1.32A9.57,9.57,0,0,1,128.66,41Z" transform="translate(-1057.5 1243.996)" fill="#ffb288"/>
    <path id="Path_204" data-name="Path 204" d="M129.28,40.53c.67-.1,0-.54.3.07.19.4.25.51.63.64s.38.46.69.7c.49.36.9-.13,1.11-.55a4.68,4.68,0,0,0,.28-2.54c-.07-.66-.29-1.7.35-2.16s1.69.17,2.24.33c.83.24,1.66.51,2.5.76a14.81,14.81,0,0,0,6.25.87,6.06,6.06,0,0,0,4.65-2.93c1.06-2-1.07-4.74-3.23-4.74a8.9,8.9,0,0,0-1.66.34,1.3,1.3,0,0,1-.62,0c-.47-.14-.68-.67-.94-1.08a3.59,3.59,0,0,0-3.59-1.48,30.2,30.2,0,0,0-4.49,1.36,8.59,8.59,0,0,1-2.32,0,2.47,2.47,0,0,0-2.05,1.34c-.66-.68-2.12,1-2.48,1.44-1.6,1.94-2.1,4.74-2.14,7.2,0,2.14.32,5.27,2.67,6.13,1,.37,1.62.56,1.66-.35a14.55,14.55,0,0,1-.62-3.61,1.91,1.91,0,0,1,.87-2" transform="translate(-1057.5 1243.996)" fill="#26387a"/>
    <path id="Path_205" data-name="Path 205" d="M137,49.49l-.51,5.4,1.77.5a5,5,0,0,1-4,2.83c-6.29.84-10.73-4-10.73-4l2.1-.4,3.18-10" transform="translate(-1057.5 1243.996)" fill="#ffb288"/>
    <path id="Path_206" data-name="Path 206" d="M130.33,40.49a.86.86,0,0,0-.87-.82,1.68,1.68,0,0,0-1.18.57c-1.76,1.75.45,6,2.19,3.81" transform="translate(-1057.5 1243.996)" fill="#ffb288"/>
    <path id="Path_207" data-name="Path 207" d="M142.18,46.67c-.28.66-1.39.92-2,1-3,.33-5.41-1.58-8.25-1.93a1.5,1.5,0,0,0-2.06,1.76,18.685,18.685,0,0,0,0,2,3.86,3.86,0,0,0,.45,1.64c1.28,2.13,5.55,2.49,7.71,2.36a4.59,4.59,0,0,0,2.47-.74c1-.74,1.18-2,1.55-3.15A6.29,6.29,0,0,0,142.18,46.67Z" transform="translate(-1057.5 1243.996)" fill="#26387a"/>
    <path id="Path_208" data-name="Path 208" d="M140.09,49a.65.65,0,0,0-.32-.11,27.359,27.359,0,0,1-3.22-.42,1.67,1.67,0,0,0-.55,0,1.13,1.13,0,0,0-.68.9.74.74,0,0,0,.47.86,4.92,4.92,0,0,0,2.07.46,3,3,0,0,0,1.94-.35C140.09,50.12,140.52,49.31,140.09,49Z" transform="translate(-1057.5 1243.996)" fill="#ffb288"/>
    <path id="Path_209" data-name="Path 209" d="M127.08,127.08c-34.41-1.8-54.45,16-68.68,48.31-18.46,42-44.27,45.33-55.9,45.1" transform="translate(-1057.5 1243.996)" fill="none" stroke="#32a576" stroke-linecap="round" stroke-linejoin="round" stroke-width="5"/>
    <path id="Path_210" data-name="Path 210" d="M113.88,129.88c1.26,15.19,13.52,23.39,23.34,22.57l16.11-1.34-4.06-48.69-16.11,1.34C123.34,104.58,112.61,114.7,113.88,129.88Z" transform="translate(-1057.5 1243.996)" fill="#fdae2b"/>
    <path id="Path_211" data-name="Path 211" d="M122.18,129.19c1.23,14.84,11,26.13,21.86,25.23l17.77-1.49-4.48-53.72-17.77,1.48C128.72,101.6,120.94,114.36,122.18,129.19Z" transform="translate(-1057.5 1243.996)" fill="#ef8417"/>
    <ellipse id="Ellipse_28" data-name="Ellipse 28" cx="19.69" cy="26.95" rx="19.69" ry="26.95" transform="translate(-921.058 1344.956) rotate(-4.77)" fill="#ffc840"/>
    <path id="Path_212" data-name="Path 212" d="M157.46,135.83c.18,2.21,1.84,3.87,3.69,3.71a3.688,3.688,0,0,0,3-4.27c-.22-2.21-1.84-3.86-3.69-3.71S157.27,133.63,157.46,135.83Z" transform="translate(-1057.5 1243.996)" fill="#fdae2b"/>
    <path id="Path_213" data-name="Path 213" d="M155.87,116.8c.18,2.2,1.84,3.86,3.7,3.71s3.21-2.07,3-4.28-1.84-3.86-3.7-3.71S155.68,114.59,155.87,116.8Z" transform="translate(-1057.5 1243.996)" fill="#fdae2b"/>
    <path id="Path_214" data-name="Path 214" d="M159.79,119.29l25.12-2.09a2.8,2.8,0,0,0,2.54-3h0a2.79,2.79,0,0,0-3-2.57l-25.13,2.09C157.4,113.85,157.77,119.46,159.79,119.29Z" transform="translate(-1057.5 1243.996)" fill="#e2e8ed"/>
    <path id="Path_215" data-name="Path 215" d="M161.38,138.33l25.12-2.1a2.79,2.79,0,0,0,2.54-3h0a2.79,2.79,0,0,0-3-2.57l-25.12,2.09C159,132.88,159.35,138.5,161.38,138.33Z" transform="translate(-1057.5 1243.996)" fill="#e2e8ed"/>
    <path id="Path_216" data-name="Path 216" d="M99.48,83.33s-1.25,12.73,4.44,23.32a107.233,107.233,0,0,0,22.35,27.23l1.88-.46c-2.72-10.44-11.3-29-11.84-35.91s-.4-15-.53-18.87" transform="translate(-1057.5 1243.996)" fill="#ffb288"/>
    <path id="Path_217" data-name="Path 217" d="M123.45,54.23s-11,.64-17.39,5.44c-11,8.29-8.83,30.56-5.63,41.45S119,128.35,124,131.87c.81,0,3.2-.2,3.12-2.08C124.34,121.3,116.51,99,116.51,99l1.24-30.13" transform="translate(-1057.5 1243.996)" fill="#32a576"/>
    <path id="Path_218" data-name="Path 218" d="M127.39,131.87a6.7,6.7,0,0,1,3.35,1.48c.92.72,2,1.92,1.93,2.47s-1.63-.54-1.81-.31,2.57,4.39,2,4.7-2.86-3.46-2.86-3.46,2.28,4,1.39,4.12c-.73.07-2.76-3.74-2.76-3.74s1.71,3.41,1.13,3.54-2.17-3.27-2.17-3.27,1.29,2.9.79,2.95a6,6,0,0,1-2.05-3.17c-.53-1.72-1.14-3.21-.67-4.56" transform="translate(-1057.5 1243.996)" fill="#ffb288"/>
    <path id="Path_219" data-name="Path 219" d="M119.61,107.84,116.51,99l2.32-25.29" transform="translate(-1057.5 1243.996)" fill="none" stroke="#008f55" stroke-miterlimit="10" stroke-width="0.5"/>
    <path id="Path_220" data-name="Path 220" d="M97.91,79.83c-.06,6.85.76,15.3,2.52,21.29,1.54,5.24,5.9,11.75,10.56,17.47" transform="translate(-1057.5 1243.996)" fill="none" stroke="#008f55" stroke-miterlimit="10" stroke-width="0.5"/>
    <path id="Path_221" data-name="Path 221" d="M334.06,42.58l1.78-1.21a30,30,0,0,1,1.27-4.56,11,11,0,0,1,2.43-3c.44-.29,2.41-1.41,2.91-.91.25.25-.59,2.48-1,2.86s-1.51,2.1-1.33,2.64,1.11-.64,1.33-.86.52-.5.62-.21c.18.47-.82,3.17-1.6,3.95a5,5,0,0,1-2.93,1.52l-2.76,2.43" transform="translate(-1057.5 1243.996)" fill="#ffb288"/>
    <path id="Path_222" data-name="Path 222" d="M355.45,29.86a12.56,12.56,0,0,1,5.45,8.25,3.51,3.51,0,0,0,.64,1.66,3.67,3.67,0,0,0,1.22.73,10,10,0,0,1,5.15,5.86c.37,1.08.08,2.61.51,3.53.52,1.13,2.43,1.38,3.47,1.72A7.86,7.86,0,0,1,372,66.48a4.87,4.87,0,0,1,.56,4.08,9.521,9.521,0,0,1-2.15,3.63,20.11,20.11,0,0,1-15.74,6.49,14.69,14.69,0,0,1-4.95-1,20,20,0,0,1-4.82-3.08,15.21,15.21,0,0,1-4.57-5.12c-1-2.09-.91-4.83.74-6.45a5,5,0,0,1-5-2.26,7.35,7.35,0,0,1-.84-5.6,13.79,13.79,0,0,1,2.6-5.17,8,8,0,0,0,1.92-3.55c.29-2.26-1-4.28-1.3-6.52-.51-3.49-.35-6.5,2.64-8.35,1-2.49,2.12-4.41,4.88-5.14a12.12,12.12,0,0,1,9.48,1.42Z" transform="translate(-1057.5 1243.996)" fill="#26387a"/>
    <path id="Path_223" data-name="Path 223" d="M348.25,56.41c-10-2.62-21.39,1.51-23.93,1.5,3.48-3.49,9.88-11.25,12.09-13.93a2.43,2.43,0,0,0-1.12-2.35S307.93,55.78,310.68,65c2.87,9.65,29.67,4.92,31.82,7.68" transform="translate(-1057.5 1243.996)" fill="#32a576"/>
    <path id="Path_224" data-name="Path 224" d="M350.21,146.2c0,.82-3.6,18.38-3.87,20.27-.76,5.49,2.14,11,1.86,19.5-.35,10.35-4.75,38.16-5.31,39.39s-3.24.1-3.24.1-7.73-37.3-8.17-52.57c-.36-12.57,1.47-39.78,1.47-39.78" transform="translate(-1057.5 1243.996)" fill="#ffb288"/>
    <path id="Path_225" data-name="Path 225" d="M343.17,225.84a4.471,4.471,0,0,1,.43,1.37l-.1,1.95H343l-.18-.95a8.2,8.2,0,0,0-2.7,1.13c-.65.44-4,.4-4.48.13a.67.67,0,0,1-.22-1.07c.19-.22,3.78-1.79,3.78-1.79" transform="translate(-1057.5 1243.996)" fill="#26387a"/>
    <path id="Path_226" data-name="Path 226" d="M339.65,225.46c-.29.7-3.12,2.25-2.86,2.45a6.59,6.59,0,0,0,3.74-.39c1.66-.55,2.6-1.17,2.66-1.61l-.32-1.17" transform="translate(-1057.5 1243.996)" fill="#ffb288"/>
    <path id="Path_227" data-name="Path 227" d="M375,146.93c0,.82-3,18.48-3.24,20.38-.6,5.5,2.47,10.92,2.44,19.43,0,10.36-3.57,38.29-4.1,39.54s-3.23.2-3.23.2-8.87-37-9.77-52.3c-.75-12.55.25-39.81.25-39.81" transform="translate(-1057.5 1243.996)" fill="#ffb288"/>
    <path id="Path_228" data-name="Path 228" d="M370.42,226.74a4.429,4.429,0,0,1,.47,1.36v2h-.5l-.21-.94a8.09,8.09,0,0,0-2.66,1.21c-.65.46-4,.52-4.48.26a.67.67,0,0,1-.25-1.06c.18-.23,3.72-1.9,3.72-1.9" transform="translate(-1057.5 1243.996)" fill="#26387a"/>
    <path id="Path_229" data-name="Path 229" d="M366.9,226.48c-.27.71-3.06,2.34-2.79,2.53a6.63,6.63,0,0,0,3.72-.5c1.65-.6,2.57-1.25,2.61-1.69l-.35-1.16" transform="translate(-1057.5 1243.996)" fill="#ffb288"/>
    <path id="Path_230" data-name="Path 230" d="M366,101.75s7.93,5.19,10.95,17.65C381,136.2,375,169.09,375,169.09a101.7,101.7,0,0,1-25.92,3.51c-13.5-.11-21.5-4.68-21.53-5.49s-2-25.72.73-42.61c3.08-19,10.93-24.08,10.93-24.08" transform="translate(-1057.5 1243.996)" fill="#2858ad"/>
    <path id="Path_231" data-name="Path 231" d="M355.27,56.09c1.22-.46,4.41.66,10.38,2.94,2.62,2.84,3.77,9.06,4.34,14.56-1.55,13.4-3.28,20.71-2.45,25.23.2,1.07,1.18,1.88,1,3.37-.33,3.09-5.38,3.56-15,4.65s-18.24-3.27-17.72-4.63,2.15-2.56,2.41-3.46,1.05-12.38,0-13.74-3.72-5.28-3.72-9.1c0-5.37,3-7.78,4.9-10.73,3.22-4.92,5.67-8,8.79-8.77C353.25,55.17,355.27,56.09,355.27,56.09Z" transform="translate(-1057.5 1243.996)" fill="#32a576"/>
    <path id="Path_232" data-name="Path 232" d="M339.11,62.88a7,7,0,0,1-.83,4.22c-.36.6-2.54,2.82-3,4.23" transform="translate(-1057.5 1243.996)" fill="none" stroke="#008f55" stroke-miterlimit="10" stroke-width="0.5"/>
    <path id="Path_233" data-name="Path 233" d="M353,49.55c2.62-2.6,3-7.54,1.84-10.88-1.34-3.76-6.69-6.57-10.38-4.22C337.19,39.07,344.54,57.93,353,49.55Z" transform="translate(-1057.5 1243.996)" fill="#ffb288"/>
    <path id="Path_234" data-name="Path 234" d="M348,49.09l.13,8s-.3,1.79,2.85,1.9c4.31.15,4.31-2.94,4.31-2.94l-2.5-8.28" transform="translate(-1057.5 1243.996)" fill="#ffb288"/>
    <path id="Path_235" data-name="Path 235" d="M351.24,30.9a2.46,2.46,0,0,0-2.75-.07A14.108,14.108,0,0,1,346.94,32a9.141,9.141,0,0,1-1.37.34,7.81,7.81,0,0,0-4.95,4.15c-.89,2-.6,5.26,1.05,6.69a10,10,0,0,1,1.22-5.08,2.25,2.25,0,0,1,1.93-1.28c.9.1,1.4,1.07,2.05,1.71a6.46,6.46,0,0,0,3.72,1.36c1.49.22,2.63.48,3.36,1.93a9.471,9.471,0,0,1,.66,2,14,14,0,0,1,.45,2.48,6.141,6.141,0,0,0,.16,1.55,3.48,3.48,0,0,0,2.33,1.93c.76.25,2,.49,2.51-.37a8.52,8.52,0,0,0,.88-2.54A11.42,11.42,0,0,0,359.09,39c-1.6-2.54-3.88-4.24-5.93-6.36A12.629,12.629,0,0,0,351.24,30.9Z" transform="translate(-1057.5 1243.996)" fill="#26387a"/>
    <path id="Path_236" data-name="Path 236" d="M353.26,43.27a1.71,1.71,0,0,1,1.24-1.33c2.05-.31,1.74,2.74.95,3.82-.47.62-1.66,1.44-2.19-.3" transform="translate(-1057.5 1243.996)" fill="#ffb288"/>
    <path id="Path_237" data-name="Path 237" d="M375,105.86l-1,2s-3.64.87-4,1.51c-.61,1-1.52,2.41-1.52,3.2s.07,4.29,1.07,4.29c.62,0,2.09-2.85,2.39-3.25.71-.94,3.58-1.62,3.58-4.09l1.76-3.71" transform="translate(-1057.5 1243.996)" fill="#ffb288"/>
    <path id="Path_238" data-name="Path 238" d="M355.27,56s8.47-2.16,15.1,2c5.15,3.25,18.4,19.42,18.4,28.68,0,6.24-12.39,21.7-12.39,21.7l-2.06-1.47s1.2-12.15,4.8-18.85c-2.66-2.66-13-10.91-15.62-13.51" transform="translate(-1057.5 1243.996)" fill="#32a576"/>
    <path id="Path_239" data-name="Path 239" d="M362.16,73.7c1.85,1.64,6.73,5.57,6.73,5.57" transform="translate(-1057.5 1243.996)" fill="none" stroke="#008f55" stroke-miterlimit="10" stroke-width="0.5"/>
    <path id="Path_240" data-name="Path 240" d="M112.17,41.66l-10.25-8.25s4.61-17-1.49-23A33.34,33.34,0,0,0,88.85,3.53C79.42,0,68.16-.86,59.76,4.71c-6.2,4.12-10,11.16-11.65,18.41-1.48,6.38-1.36,13.62,2.63,18.82a20.36,20.36,0,0,0,6.85,5.45c8.1,4.25,29.54,5.85,38.84-.38C99,45.28,98.78,43,99.86,39.3Z" transform="translate(-1057.5 1243.996)" fill="#32a576"/>
    <text id="Oops_" data-name="Oops!" transform="translate(-1004.72 1276.006)" fill="#fff" font-size="16.81" font-family="OpenSans-Semibold, Open Sans" font-weight="600" letter-spacing="-0.03em"><tspan x="0" y="0">Oops!</tspan></text>
  </g>
</svg>
