<svg xmlns="http://www.w3.org/2000/svg" width="382.365" height="224.927" viewBox="0 0 382.365 224.927">
  <g id="Group_264" data-name="Group 264" transform="translate(-1967.5 -2586.376)">
    <path id="Path_722" data-name="Path 722" d="M94.265,187.151a8.921,8.921,0,0,1,0-17.843H97.18a9.447,9.447,0,0,0,6.691-16.122,9.559,9.559,0,0,0-5.4-2.676H51.346a8.921,8.921,0,1,1,0-17.843H91.4a9.463,9.463,0,0,0,1.593-14.625,9.559,9.559,0,0,0-2.74-1.9H8.921a8.921,8.921,0,1,1,0-17.843h91.318a9.463,9.463,0,0,0,4.588-17.715H56.173a8.921,8.921,0,1,1,0-17.827h71.085a9.463,9.463,0,0,0,6.675-16.138,9.639,9.639,0,0,0-3.441-2.2H94.265a8.921,8.921,0,1,1,0-17.827h24.423a112.426,112.426,0,0,1,156.62,11.152h15.2a8.921,8.921,0,1,1,0,17.843h-7.488a8.921,8.921,0,0,0,0,17.827h13.749a.93.93,0,0,0,.127.35h35.542a8.921,8.921,0,1,1,0,17.843H292.752a9.162,9.162,0,0,0-.382,18.321h81.074a8.921,8.921,0,1,1,0,17.843h-90.41a8.921,8.921,0,0,0-2.9,17.349H328.6a8.921,8.921,0,1,1,0,17.843H257.735a8.921,8.921,0,1,0,0,17.843h22.893l-.112.143h9.973a8.921,8.921,0,1,1,0,17.843H263.406a112.458,112.458,0,0,1-156.126-11.582Z" transform="translate(1967.5 2586.361)" fill="#15b496" opacity="0.05"/>
    <path id="Path_723" data-name="Path 723" d="M195.537,11.6H116.47L76.26,61.194V176.44A16.76,16.76,0,0,0,93,193.2H195.537a16.744,16.744,0,0,0,16.744-16.76V28.36A16.744,16.744,0,0,0,195.537,11.6" transform="translate(2012.731 2593.232)" fill="#ebf5ee"/>
    <path id="Path_724" data-name="Path 724" d="M116.47,11.6V44.434a16.76,16.76,0,0,1-16.728,16.76H76.26Z" transform="translate(2012.731 2593.232)" fill="#fff" opacity="0.1"/>
    <path id="Path_725" data-name="Path 725" d="M212.28,28.36V176.44a16.76,16.76,0,0,1-16.744,16.76H93A16.76,16.76,0,0,1,76.26,176.44V61.194L116.47,11.6h79.066a16.76,16.76,0,0,1,16.744,16.76Z" transform="translate(2012.731 2593.232)" fill="none" stroke="#15b496" stroke-miterlimit="10" stroke-width="2.2"/>
    <path id="Path_726" data-name="Path 726" d="M116.47,11.6V44.434a16.76,16.76,0,0,1-16.728,16.76H76.26Z" transform="translate(2012.731 2593.232)" fill="none" stroke="#43b989" stroke-linecap="round" stroke-linejoin="round" stroke-width="2.2"/>
    <path id="Path_727" data-name="Path 727" d="M150.711,60.83a31.99,31.99,0,0,1-44.751,0" transform="translate(2030.347 2622.431)" fill="none" stroke="#43b989" stroke-linecap="round" stroke-linejoin="round" stroke-width="2.2"/>
    <line id="Line_30" data-name="Line 30" x2="61.255" transform="translate(2126.27 2717.959)" fill="none" stroke="#43b989" stroke-linecap="round" stroke-linejoin="round" stroke-width="2.2"/>
    <line id="Line_31" data-name="Line 31" x2="113.303" transform="translate(2100.35 2740.98)" fill="none" stroke="#43b989" stroke-linecap="round" stroke-linejoin="round" stroke-width="2.2"/>
    <line id="Line_32" data-name="Line 32" x2="113.303" transform="translate(2100.35 2756.385)" fill="none" stroke="#43b989" stroke-linecap="round" stroke-linejoin="round" stroke-width="2.2"/>
    <path id="Path_728" data-name="Path 728" d="M105.863,51.807a3.107,3.107,0,1,1-3.186-3.107A3.186,3.186,0,0,1,105.863,51.807Z" transform="translate(2026.604 2615.237)" fill="#43b989"/>
    <path id="Path_729" data-name="Path 729" d="M103.332,57.024a4.636,4.636,0,1,1,3.288-1.352,4.652,4.652,0,0,1-3.288,1.352Zm0-6.2a1.593,1.593,0,1,0,1.593,1.593,1.593,1.593,0,0,0-1.593-1.593Z" transform="translate(2026.029 2614.656)" fill="#43b989"/>
    <path id="Path_730" data-name="Path 730" d="M141.372,51.807a3.186,3.186,0,1,1-3.107-3.107,3.186,3.186,0,0,1,3.107,3.107Z" transform="translate(2047.571 2615.236)" fill="#43b989"/>
    <path id="Path_731" data-name="Path 731" d="M138.828,57.024a4.652,4.652,0,1,1,4.636-4.636A4.652,4.652,0,0,1,138.828,57.024Zm0-6.2a1.593,1.593,0,1,0,1.593,1.593,1.593,1.593,0,0,0-1.593-1.593Z" transform="translate(2047.073 2614.656)" fill="#43b989"/>
  </g>
</svg>
